<svg preserveAspectRatio="none" overflow="visible" style="display: block;" width="200" height="200" viewBox="0 0 200 200" fill="none" xmlns="http://www.w3.org/2000/svg">
<g id="01-compliance-unified-form 1">
<path id="Vector_2" d="M22.58 144.74V127.95L77.77 85.21L175.34 109.38V126.18L120.15 168.92L22.58 144.74ZM77.77 85.21V102M22.58 127.95L120.15 152.12M120.15 152.12L175.34 109.38M120.15 152.12V168.92M22.58 144.74L77.77 102M77.77 102L175.34 126.18M27.2 125.37V108.57L87.51 67.18L182 93.6V110.4L121.69 151.79L27.2 125.37ZM87.51 67.18V83.98M27.2 108.57L121.69 134.99M121.69 134.99L182 93.6M121.69 134.99V151.79M27.2 125.37L87.51 83.98M87.51 83.98L182 110.4M18 105.95V89.15L83.26 49.23L174.4 77.81V94.61L109.14 134.53L18 105.95ZM83.26 49.23V66.02M18 89.15L109.14 117.74M109.14 117.74L174.4 77.81M109.14 117.74V134.53M18 105.95L83.26 66.02M83.26 66.02L174.4 94.61M20.18 86.22V69.43L90.2 31.08L177.74 61.76V78.55L107.71 116.9L20.18 86.22ZM90.2 31.08V47.88M20.18 69.43L107.71 100.1M107.71 100.1L177.74 61.76M107.71 100.1V116.9M20.18 86.22L90.2 47.88M90.2 47.88L177.74 78.55" stroke="#2B2F36" stroke-opacity="0.9" stroke-width="1.4" stroke-linecap="round" stroke-linejoin="round"/>
</g>
</svg>
